<?xml version="1.0" standalone="no"?>
<!DOCTYPE svg PUBLIC "-//W3C//DTD SVG 20010904//EN"
 "http://www.w3.org/TR/2001/REC-SVG-20010904/DTD/svg10.dtd">
<svg version="1.0" xmlns="http://www.w3.org/2000/svg"
 width="900.000000pt" height="900.000000pt" viewBox="0 0 900.000000 900.000000"
 preserveAspectRatio="xMidYMid meet">
<metadata>
Created by potrace 1.14, written by Peter Selinger 2001-2017
</metadata>
<g transform="translate(0.000000,900.000000) scale(0.100000,-0.100000)"
fill="#000000" stroke="none">
<path d="M3460 8854 c0 -5 -15 -9 -32 -8 -18 1 -36 -3 -40 -9 -6 -9 -8 -8 -8
2 0 11 -3 11 -15 1 -11 -9 -15 -9 -15 -1 0 7 -4 9 -10 6 -19 -12 -50 -14 -50
-3 0 7 -5 6 -15 -2 -8 -7 -24 -10 -35 -7 -11 3 -22 2 -25 -2 -2 -4 -26 -7 -54
-7 -27 1 -47 -2 -44 -6 2 -5 -17 -8 -42 -8 -31 0 -44 -4 -39 -11 5 -8 1 -8
-14 0 -12 6 -23 7 -26 2 -4 -5 -17 -8 -31 -6 -14 1 -25 -2 -25 -7 0 -5 -6 -8
-12 -5 -7 2 -26 -2 -42 -10 -15 -8 -25 -10 -22 -4 4 6 2 11 -3 11 -6 0 -11 -4
-11 -9 0 -5 -8 -8 -17 -6 -10 1 -22 0 -28 -4 -5 -3 -21 -7 -35 -9 -13 -2 -29
-7 -35 -11 -5 -4 -23 -8 -38 -9 -15 -1 -37 -7 -48 -12 -11 -6 -24 -8 -29 -5
-5 3 -11 1 -15 -5 -3 -5 -17 -10 -31 -10 -13 0 -24 -4 -24 -9 0 -6 -9 -8 -20
-6 -11 2 -22 -1 -25 -6 -4 -5 -11 -7 -16 -4 -5 4 -9 1 -9 -6 0 -6 -8 -9 -20
-6 -11 3 -20 2 -20 -3 0 -7 -57 -24 -72 -21 -5 0 -8 -4 -8 -10 0 -5 -4 -8 -8
-5 -5 3 -20 -1 -35 -9 -14 -7 -28 -11 -31 -7 -3 3 -6 -1 -6 -8 0 -7 -3 -11 -6
-7 -4 3 -18 0 -33 -7 -14 -7 -32 -11 -38 -9 -7 3 -13 0 -13 -6 0 -5 -16 -13
-35 -17 -19 -3 -35 -10 -35 -15 0 -5 -7 -6 -15 -3 -8 4 -15 1 -15 -6 0 -6 -4
-8 -10 -5 -5 3 -10 1 -10 -5 0 -6 -3 -9 -8 -6 -9 5 -92 -22 -140 -46 -18 -9
-29 -12 -26 -6 4 5 -5 3 -18 -6 -14 -9 -26 -15 -29 -14 -2 2 -3 1 -1 -2 7 -10
97 -6 104 4 5 8 8 7 8 -1 0 -8 13 -12 35 -11 22 1 32 5 28 12 -4 7 -2 7 8 -1
9 -7 55 -11 132 -10 72 1 117 -2 117 -8 0 -7 3 -7 8 0 4 6 21 10 37 10 17 0
33 -4 37 -10 5 -7 8 -7 8 0 0 6 31 9 77 8 43 -1 78 -3 78 -3 0 -1 34 -3 75 -5
41 -3 80 -5 85 -6 6 -1 18 2 28 6 9 4 17 3 17 -1 0 -5 24 -10 53 -11 99 -4
152 -9 162 -14 6 -3 31 -5 58 -5 26 1 47 -2 47 -6 0 -4 8 -7 18 -6 17 0 113
-10 142 -15 8 -1 21 -6 28 -10 7 -5 12 -3 12 5 0 8 3 9 8 3 4 -5 12 -11 17
-12 6 0 26 -4 45 -7 19 -4 51 -9 70 -13 19 -3 45 -6 58 -7 12 -1 22 -5 22 -9
0 -5 5 -5 10 -2 6 3 10 0 10 -7 0 -9 3 -9 10 2 5 8 10 10 10 4 0 -6 12 -11 28
-10 27 0 32 -4 32 -26 0 -9 -3 -9 -9 1 -7 11 -13 12 -23 4 -7 -6 -23 -9 -36
-8 -13 1 -25 -2 -27 -6 -3 -4 -15 -5 -27 -1 -13 3 -19 1 -15 -5 3 -5 0 -10 -8
-10 -8 0 -15 5 -15 11 0 7 -3 7 -8 1 -4 -5 -16 -11 -27 -12 -18 -2 -53 -9 -65
-13 -3 -1 -17 -2 -32 -2 -16 -1 -28 -5 -28 -10 0 -5 -9 -7 -19 -3 -11 3 -22 1
-25 -4 -4 -5 -15 -8 -26 -6 -11 2 -20 0 -20 -5 0 -5 -7 -7 -15 -4 -8 4 -22 1
-30 -6 -8 -6 -19 -9 -25 -5 -5 3 -10 2 -10 -3 0 -5 -11 -8 -25 -7 -14 2 -25
-1 -25 -6 0 -5 -8 -9 -19 -9 -10 0 -58 -13 -107 -29 -49 -16 -92 -28 -95 -25
-4 2 -10 -3 -13 -12 -4 -10 -13 -13 -26 -9 -11 4 -20 2 -20 -4 0 -5 -17 -13
-37 -17 -21 -4 -46 -13 -55 -21 -9 -8 -22 -12 -27 -8 -6 3 -11 1 -11 -4 0 -6
-6 -11 -12 -11 -7 0 -49 -18 -93 -40 -44 -22 -84 -40 -88 -40 -5 0 -15 -7 -24
-15 -8 -8 -19 -13 -24 -10 -5 4 -9 1 -9 -4 0 -6 -7 -11 -15 -11 -8 0 -15 -4
-15 -9 0 -5 -11 -12 -25 -15 -14 -4 -25 -11 -25 -17 0 -6 -4 -7 -10 -4 -5 3
-10 1 -10 -5 0 -6 -4 -8 -10 -5 -5 3 -10 1 -10 -4 0 -6 -7 -11 -15 -11 -8 0
-15 -5 -15 -11 0 -5 -5 -7 -10 -4 -6 3 -13 -1 -16 -9 -3 -9 -12 -16 -20 -16
-8 0 -14 -5 -14 -11 0 -5 -4 -8 -8 -5 -5 3 -23 -8 -41 -24 -18 -17 -35 -30
-38 -30 -6 0 -95 -67 -140 -105 -7 -5 -29 -23 -48 -40 -68 -57 -251 -240 -258
-258 -4 -10 -11 -15 -17 -12 -5 3 -10 -1 -10 -9 0 -9 -7 -16 -16 -16 -9 0 -14
-6 -11 -12 2 -7 -10 -23 -27 -36 -17 -13 -29 -24 -26 -25 4 -2 -46 -75 -61
-87 -16 -15 -88 -120 -82 -120 4 0 0 -5 -9 -11 -10 -5 -18 -17 -18 -24 0 -8
-4 -15 -8 -15 -9 0 -29 -37 -30 -54 0 -5 -7 -13 -16 -18 -9 -5 -16 -16 -16
-23 0 -8 -5 -15 -12 -15 -6 0 -9 -3 -5 -6 3 -4 -1 -13 -9 -21 -8 -8 -12 -19
-9 -24 4 -5 -2 -9 -11 -9 -10 0 -14 -3 -11 -6 4 -4 -3 -20 -14 -35 -11 -16
-18 -29 -15 -29 3 0 -3 -9 -14 -20 -11 -11 -20 -27 -20 -35 0 -8 -4 -15 -10
-15 -5 0 -12 -11 -16 -25 -3 -14 -10 -25 -16 -25 -5 0 -7 -4 -4 -9 3 -5 -1
-12 -10 -15 -8 -3 -12 -10 -9 -16 3 -5 1 -10 -4 -10 -6 0 -11 -6 -11 -14 0 -8
-6 -16 -12 -19 -10 -3 -10 -8 1 -18 12 -12 13 -12 6 0 -6 11 -4 13 8 8 10 -3
17 -2 17 3 0 6 7 10 16 10 8 0 12 5 9 10 -3 6 0 10 8 10 7 0 23 9 35 20 12 12
22 18 22 14 0 -4 9 1 20 11 11 10 20 15 20 10 0 -4 12 4 26 18 15 15 30 24 35
22 4 -3 11 1 16 8 4 7 16 17 26 20 10 4 15 11 12 17 -3 6 1 7 9 4 9 -3 16 -1
16 6 0 6 4 9 9 5 6 -3 14 3 20 12 5 10 12 17 16 15 3 -2 32 13 64 32 32 20 64
36 70 36 6 0 11 5 11 10 0 6 7 10 15 10 8 0 15 5 15 11 0 5 5 7 10 4 6 -3 10
-1 10 5 0 7 7 9 15 6 9 -3 18 1 21 9 4 8 12 15 20 15 8 0 14 4 14 9 0 5 8 8
18 7 10 0 16 5 14 13 -2 11 0 12 11 2 12 -9 16 -8 21 4 3 8 14 15 24 15 10 0
23 5 29 11 6 6 19 12 29 14 11 1 18 7 17 12 -1 6 9 9 22 7 14 -1 25 1 25 6 0
7 23 17 60 25 8 2 23 8 35 14 33 15 59 24 68 23 4 -1 7 3 7 10 0 6 3 8 7 5 3
-4 13 -2 20 5 8 6 28 12 45 13 16 1 33 6 36 12 4 6 15 9 25 7 9 -1 17 3 17 9
0 5 3 8 6 5 3 -3 32 2 64 12 32 10 61 15 64 12 3 -3 6 -1 6 5 0 5 6 10 13 10
7 0 25 3 41 7 27 7 28 6 10 -10 -11 -10 -27 -27 -37 -38 -10 -12 -15 -14 -11
-6 4 8 -3 5 -15 -7 -12 -13 -26 -23 -32 -23 -6 0 -7 -4 -4 -10 3 -5 1 -10 -5
-10 -12 0 -168 -156 -210 -209 -14 -18 -37 -46 -52 -63 -15 -17 -25 -35 -22
-39 3 -5 -2 -9 -10 -9 -15 0 -21 -12 -17 -33 1 -5 -3 -6 -9 -2 -5 3 -10 2 -10
-3 0 -8 -9 -21 -49 -68 -5 -7 -7 -14 -4 -18 3 -3 -2 -8 -11 -12 -9 -3 -13 -10
-10 -15 3 -5 -2 -12 -10 -15 -9 -3 -13 -10 -10 -15 3 -5 2 -9 -3 -9 -4 0 -24
-27 -42 -60 -19 -33 -39 -60 -43 -60 -4 0 -8 -5 -8 -11 0 -6 -9 -23 -19 -38
-11 -15 -21 -34 -23 -42 -2 -8 -11 -20 -21 -27 -9 -7 -15 -18 -12 -23 4 -5 1
-9 -4 -9 -6 0 -11 -7 -11 -15 0 -8 -5 -15 -11 -15 -5 0 -8 -4 -5 -8 3 -5 -2
-18 -12 -28 -22 -25 -52 -74 -59 -96 -3 -10 -9 -18 -14 -18 -5 0 -9 -6 -9 -13
0 -7 -9 -23 -20 -35 -12 -12 -18 -22 -15 -22 3 0 -3 -10 -15 -22 -11 -12 -20
-27 -20 -33 0 -14 -32 -16 -41 -3 -7 11 -51 -31 -44 -42 3 -5 -2 -10 -10 -14
-8 -3 -12 -12 -9 -21 4 -8 1 -15 -7 -15 -7 0 -10 -3 -6 -6 3 -4 -1 -23 -9 -43
-9 -20 -17 -40 -18 -46 -6 -23 -30 -65 -38 -65 -4 0 -8 -7 -8 -15 0 -8 -7 -15
-16 -15 -8 0 -13 -4 -10 -8 3 -5 -4 -15 -15 -22 -10 -8 -19 -19 -19 -24 0 -5
-13 -22 -30 -37 -16 -16 -27 -29 -24 -29 3 0 -24 -29 -60 -64 -35 -35 -62 -66
-59 -69 2 -3 -5 -8 -16 -12 -12 -3 -21 -13 -21 -21 0 -8 -4 -13 -9 -9 -6 3
-15 -3 -20 -14 -6 -11 -20 -23 -31 -26 -11 -4 -18 -11 -15 -16 4 -5 2 -9 -2
-9 -5 0 -22 -12 -39 -27 -59 -53 -89 -78 -94 -78 -3 0 -12 -6 -20 -13 -28 -24
-58 -47 -80 -62 -13 -8 -36 -26 -51 -38 -16 -13 -29 -20 -29 -15 0 4 -6 1 -13
-8 -14 -18 -58 -44 -69 -41 -5 1 -8 -3 -8 -8 0 -6 -12 -17 -27 -23 -46 -21
-103 -58 -103 -68 0 -5 -8 -9 -17 -9 -24 -1 -55 -25 -45 -35 4 -5 2 -5 -5 -2
-6 4 -17 1 -25 -6 -7 -7 -22 -17 -33 -21 -19 -8 -19 -8 -1 -15 10 -4 38 -7 62
-6 24 0 44 -2 44 -5 0 -3 28 -7 62 -8 76 -3 89 -5 106 -15 7 -5 12 -3 12 3 0
6 5 8 13 3 13 -8 32 -11 117 -16 31 -2 62 -7 69 -12 10 -6 12 -4 6 5 -6 9 -4
11 5 5 8 -5 46 -10 84 -11 39 -2 71 -4 71 -4 0 -1 18 -3 40 -4 22 -1 46 -5 53
-9 7 -5 12 -3 12 3 0 6 5 8 12 3 7 -4 22 -7 33 -8 19 0 20 -7 20 -92 0 -50 -2
-89 -4 -87 -7 7 -121 -118 -115 -127 3 -5 0 -9 -5 -9 -6 0 -11 -7 -11 -16 0
-8 -4 -12 -10 -9 -9 6 -14 -8 -11 -27 0 -5 -4 -8 -9 -8 -6 0 -10 -7 -10 -15 0
-8 -5 -15 -11 -15 -5 0 -7 -4 -4 -10 3 -5 1 -10 -4 -10 -6 0 -11 -7 -11 -15 0
-8 -5 -15 -11 -15 -5 0 -7 -5 -4 -11 4 -6 -2 -19 -14 -30 -12 -11 -19 -24 -16
-30 4 -5 1 -9 -4 -9 -6 0 -11 -7 -11 -15 0 -8 -4 -15 -10 -15 -5 0 -10 -3 -9
-7 2 -15 -13 -53 -21 -53 -5 0 -11 -14 -15 -30 -4 -17 -11 -30 -16 -30 -5 0
-9 -5 -9 -11 0 -5 -13 -37 -30 -71 -16 -33 -28 -64 -25 -68 3 -4 -2 -11 -11
-14 -8 -3 -12 -10 -9 -16 3 -5 1 -10 -4 -10 -6 0 -10 -3 -9 -7 1 -5 -6 -25
-15 -47 -9 -21 -17 -42 -17 -47 0 -5 -5 -9 -11 -9 -6 0 -9 -7 -5 -15 3 -8 0
-15 -6 -15 -6 0 -8 -3 -5 -6 4 -4 0 -19 -7 -33 -16 -29 -41 -92 -41 -103 0 -3
-3 -10 -7 -14 -5 -4 -8 -15 -8 -25 0 -9 -5 -19 -11 -21 -7 -2 -13 -16 -15 -31
-1 -15 -9 -41 -18 -57 -10 -21 -11 -30 -3 -30 8 0 8 -3 2 -8 -18 -13 -48 -89
-60 -153 -3 -13 -9 -25 -14 -27 -6 -2 -7 -10 -4 -18 3 -8 0 -21 -7 -29 -7 -8
-10 -22 -6 -30 3 -8 1 -15 -4 -15 -4 0 -12 -15 -16 -33 -4 -17 -9 -36 -10 -42
-42 -148 -61 -231 -57 -237 2 -5 0 -8 -5 -8 -5 0 -9 -6 -9 -12 0 -7 -3 -25 -7
-40 -3 -16 -9 -40 -12 -55 -3 -15 -10 -33 -16 -40 -7 -9 -7 -13 1 -13 7 0 9
-5 4 -12 -4 -7 -8 -17 -9 -23 -1 -5 -5 -23 -9 -40 -4 -16 -7 -38 -7 -47 1 -10
-3 -18 -7 -18 -4 0 -6 -15 -6 -32 1 -18 -2 -40 -6 -49 -4 -8 -10 -35 -13 -60
-4 -24 -9 -60 -12 -79 -3 -19 -6 -43 -5 -53 0 -9 -4 -15 -10 -12 -5 4 -5 -4 1
-19 5 -14 5 -28 1 -31 -5 -3 -8 -16 -6 -30 1 -14 -1 -25 -5 -25 -4 0 -6 -16
-5 -36 1 -19 -1 -37 -5 -39 -3 -2 -5 -19 -5 -37 1 -18 -4 -36 -9 -40 -7 -5 -6
-8 2 -8 7 0 10 -5 6 -11 -3 -6 -7 -25 -9 -43 -1 -18 -5 -38 -9 -44 -4 -7 -2
-12 4 -12 6 0 8 -5 4 -12 -7 -11 -11 -63 -16 -200 -1 -34 -6 -55 -11 -51 -6 4
-7 1 -2 -8 11 -17 13 -109 3 -102 -5 2 -8 0 -8 -6 0 -5 5 -11 11 -13 7 -2 7
-12 0 -31 -8 -20 -7 -27 2 -27 8 0 8 -3 -2 -9 -10 -7 -10 -10 -1 -13 10 -3 10
-9 1 -25 -6 -12 -7 -24 -3 -27 10 -6 9 -57 -1 -73 -5 -7 -5 -13 0 -13 7 0 10
-44 16 -232 1 -38 5 -68 8 -68 3 0 5 -12 4 -27 -1 -16 2 -36 6 -45 6 -10 4
-18 -4 -21 -8 -4 -8 -6 0 -6 6 -1 9 -10 5 -23 -3 -11 -1 -19 4 -16 5 4 9 -13
10 -35 2 -73 8 -117 16 -117 5 0 4 -10 -3 -21 -9 -17 -8 -20 2 -14 9 6 11 2 7
-13 -4 -12 -3 -22 2 -22 4 0 6 -11 5 -25 -2 -14 0 -25 3 -25 4 0 8 -15 10 -33
3 -46 6 -60 15 -74 5 -7 6 -13 3 -13 -3 0 1 -21 9 -47 8 -25 12 -50 9 -54 -2
-4 1 -13 8 -21 12 -12 16 -28 21 -90 1 -14 5 -24 9 -21 8 4 11 -10 9 -39 -1
-10 2 -18 7 -18 6 0 9 -11 8 -25 -2 -13 1 -22 5 -19 5 3 9 2 10 -3 0 -4 2 -16
5 -26 2 -9 6 -25 7 -35 4 -16 71 -17 1223 -19 1125 -2 1217 -1 1189 14 -16 9
-35 22 -43 30 -7 7 -23 18 -35 24 -24 13 -31 18 -71 54 -16 13 -32 22 -37 19
-5 -3 -9 1 -9 8 0 8 -12 21 -27 31 -16 9 -44 30 -63 47 -19 17 -57 50 -83 73
-92 80 -226 215 -220 221 4 3 -1 6 -10 6 -10 0 -17 3 -17 8 0 4 -14 23 -31 42
-17 19 -45 52 -62 73 -18 21 -36 44 -42 50 -5 7 -9 35 -8 62 2 28 4 79 5 115
2 36 7 71 11 78 5 6 4 12 -2 12 -5 0 -7 12 -5 28 3 15 6 55 7 90 0 34 4 62 7
62 3 0 5 25 5 55 -1 30 2 55 5 55 9 0 6 32 -5 49 -5 10 -4 12 3 7 8 -5 12 3
12 23 0 17 0 32 -1 34 0 1 4 14 10 30 8 19 7 27 0 27 -8 0 -8 5 1 15 6 8 9 19
5 25 -3 5 -3 10 2 10 4 0 9 17 10 38 1 20 4 48 7 62 11 51 28 149 29 168 0 6
3 12 7 12 3 0 7 10 7 23 3 45 7 67 15 67 4 0 5 9 3 20 -2 11 0 22 5 25 5 3 7
14 5 25 -2 11 -1 20 3 20 4 0 9 14 10 32 2 18 6 35 11 38 4 3 7 13 5 23 -1 9
2 17 7 17 5 0 8 3 8 8 -1 4 -1 16 0 27 1 17 5 16 27 -12 13 -18 24 -34 22 -35
-1 -2 13 -19 32 -40 57 -59 135 -149 138 -159 2 -5 10 -9 17 -9 8 0 17 -9 20
-20 3 -11 10 -20 14 -20 4 0 35 -27 69 -59 34 -32 62 -57 62 -54 0 3 11 -6 24
-20 13 -14 27 -23 30 -20 3 4 6 2 6 -4 0 -6 19 -23 42 -39 46 -31 72 -52 93
-72 8 -6 18 -12 24 -12 6 0 11 -4 11 -10 0 -5 6 -10 14 -10 8 0 16 -3 18 -8 4
-10 102 -72 114 -72 5 0 16 -9 24 -19 7 -11 17 -18 21 -15 4 2 14 -2 22 -10 8
-8 17 -12 21 -9 3 4 6 1 6 -6 0 -7 5 -9 10 -6 6 3 10 1 10 -4 0 -6 5 -11 10
-11 6 0 28 -11 49 -24 21 -14 42 -22 45 -19 3 4 6 1 6 -6 0 -7 5 -9 10 -6 6 3
13 -1 16 -9 3 -9 9 -14 14 -11 4 2 16 -2 26 -10 10 -8 27 -15 37 -15 9 0 17
-5 17 -12 0 -6 3 -9 6 -5 3 3 20 -3 38 -13 18 -9 47 -21 64 -25 18 -3 32 -11
32 -16 0 -5 8 -9 18 -9 9 0 38 -11 64 -24 26 -12 45 -19 41 -13 -3 5 5 2 18
-6 13 -9 36 -18 51 -21 14 -2 36 -9 47 -16 12 -6 21 -7 21 -3 0 4 5 2 12 -5 7
-7 22 -12 35 -12 13 0 23 -4 23 -10 0 -5 15 -10 33 -10 18 0 38 -5 45 -12 7
-7 12 -8 12 -4 0 5 8 2 17 -5 15 -12 16 -12 8 1 -8 13 -7 13 8 1 9 -7 17 -10
17 -6 0 4 6 2 13 -4 8 -6 30 -13 51 -15 20 -3 40 -8 45 -11 5 -2 24 -7 42 -10
56 -8 68 -11 75 -17 3 -4 13 -4 21 -1 8 3 19 0 24 -8 6 -10 9 -10 9 -2 0 9 7
10 25 3 14 -5 40 -11 58 -12 18 -1 38 -6 45 -11 8 -6 12 -5 12 4 0 9 3 10 8 3
4 -6 19 -11 35 -11 50 -2 53 -3 38 -12 -10 -6 -10 -10 -1 -16 9 -5 9 -9 1 -15
-6 -3 -13 -21 -14 -38 -1 -18 -5 -32 -9 -32 -3 0 -5 -11 -3 -25 1 -14 -2 -25
-6 -25 -5 0 -12 -18 -15 -40 -4 -22 -10 -40 -15 -40 -5 0 -8 -3 -8 -7 1 -5 0
-10 -1 -13 -1 -3 -3 -13 -5 -22 -2 -10 -15 -49 -30 -87 -22 -59 -35 -77 -65
-86 -13 -4 -66 -30 -70 -35 -14 -14 -52 -30 -60 -25 -6 4 -10 1 -10 -4 0 -6
-6 -11 -12 -11 -12 0 -137 -183 -128 -186 3 -1 -4 -11 -14 -23 -11 -12 -16
-21 -12 -21 4 0 0 -7 -8 -16 -9 -8 -14 -20 -11 -25 4 -5 2 -9 -2 -9 -8 0 -53
-82 -53 -95 0 -3 822 -4 1828 -3 1455 2 1826 6 1824 16 -1 6 2 12 6 12 5 0 10
15 11 33 3 54 4 57 13 57 4 0 7 3 6 8 -2 8 13 87 27 139 2 10 11 48 19 86 8
37 18 72 22 79 4 6 9 32 11 57 2 25 8 47 12 49 5 2 7 12 4 22 -3 11 -1 20 3
20 5 0 10 15 11 32 4 49 6 58 13 58 4 0 6 10 5 22 -1 13 1 28 5 33 5 9 10 35
13 83 0 6 4 12 8 12 4 0 6 9 4 20 -2 11 1 22 6 26 5 3 7 14 4 25 -4 11 -2 19
5 19 7 0 9 8 5 20 -3 11 -2 20 2 20 5 0 10 10 10 23 4 55 9 77 17 77 4 0 6 6
3 14 -3 8 -1 17 6 20 8 3 8 5 -2 5 -11 1 -11 4 -1 16 7 8 10 22 6 30 -3 8 -1
15 5 15 6 0 7 5 4 10 -3 6 -3 10 2 10 4 0 9 17 10 38 3 47 7 64 16 80 5 7 3
12 -5 12 -9 0 -10 2 -2 8 7 4 14 18 15 32 2 14 9 28 14 32 6 5 5 8 -3 8 -8 0
-10 5 -5 13 8 12 11 24 16 67 2 14 6 30 9 35 3 6 4 20 3 32 -1 13 2 23 7 23 5
0 6 11 4 25 -3 14 -1 25 3 25 4 0 8 6 8 13 2 39 14 116 22 144 5 17 7 34 4 37
-3 3 0 12 7 21 10 12 10 15 0 15 -9 0 -10 3 -1 14 6 7 12 34 13 59 1 25 5 44
8 42 4 -2 6 12 5 31 -1 19 1 37 5 39 4 2 6 18 5 35 -1 16 1 30 5 30 4 0 6 14
5 30 -1 17 1 30 4 30 4 0 6 12 5 28 -1 15 3 35 8 44 6 13 5 18 -4 18 -9 0 -10
3 -2 8 6 4 10 17 9 29 -1 13 1 23 5 23 3 0 5 16 4 35 -2 20 0 34 4 31 4 -2 8
17 9 42 1 48 10 137 13 137 1 0 3 20 4 45 1 25 4 50 7 55 3 6 4 21 3 35 -1 14
3 31 10 39 8 11 8 15 -2 18 -6 3 -10 9 -6 14 3 5 7 22 10 37 8 49 12 54 33 42
14 -7 18 -17 15 -33 -3 -12 -6 -28 -6 -34 -1 -7 -4 -13 -8 -13 -4 0 -6 -13 -5
-30 1 -16 -3 -30 -8 -30 -6 0 -7 -3 -4 -6 3 -4 2 -15 -4 -25 -7 -14 -6 -19 2
-19 8 0 8 -4 1 -13 -6 -7 -12 -35 -14 -62 -2 -28 -7 -56 -11 -62 -5 -7 -5 -13
0 -13 10 0 9 -52 -1 -68 -4 -7 -3 -12 2 -12 5 0 8 -11 7 -25 -2 -14 1 -28 6
-31 6 -3 5 -11 -2 -20 -9 -11 -9 -14 0 -14 7 0 9 -4 6 -10 -3 -5 -1 -10 4 -10
6 0 11 -12 11 -27 0 -33 60 -103 103 -121 36 -16 89 -15 106 1 10 9 12 9 7 0
-5 -9 5 -8 30 3 60 25 98 50 135 88 11 11 19 16 19 10 0 -5 8 3 18 19 10 15
22 24 25 20 4 -3 7 1 7 11 0 9 5 14 10 11 6 -3 10 -1 10 4 0 11 27 46 68 89
13 13 21 27 18 30 -3 3 6 16 20 29 14 12 22 23 19 23 -4 0 3 13 15 30 12 16
18 30 13 30 -4 0 0 5 10 11 9 6 15 14 12 20 -4 5 -2 9 2 9 5 0 14 9 21 21 11
17 11 20 0 14 -7 -3 -4 1 6 9 11 9 16 16 12 16 -5 0 -3 7 4 15 7 8 9 15 4 15
-5 0 -4 4 1 8 13 9 50 66 38 59 -4 -3 6 24 24 61 17 36 30 69 27 74 -3 4 0 8
5 8 6 0 11 11 11 24 0 13 4 26 10 28 5 1 11 12 13 23 2 11 7 28 10 38 9 22 14
41 15 47 0 3 7 22 15 43 l16 38 -31 19 c-17 10 -35 17 -40 14 -4 -3 -8 2 -8
10 0 8 -10 18 -22 22 -12 3 -28 13 -36 20 -7 8 -18 12 -23 9 -5 -4 -9 -2 -9 3
0 4 -19 19 -42 32 -24 13 -45 26 -48 30 -3 3 -20 12 -37 19 -18 8 -33 17 -33
22 0 5 -6 9 -14 9 -7 0 -19 7 -26 15 -7 8 -16 12 -21 9 -5 -3 -9 0 -9 5 0 6
-7 11 -16 11 -8 0 -12 5 -9 10 3 5 -3 10 -13 10 -11 0 -25 7 -32 15 -7 8 -16
12 -21 9 -5 -3 -9 -1 -9 3 0 11 -60 47 -60 36 0 -4 -5 0 -11 10 -6 9 -14 15
-20 12 -5 -4 -9 -2 -9 4 0 5 -9 13 -20 16 -11 3 -26 12 -33 18 -18 17 -69 47
-89 54 -10 3 -18 9 -18 14 0 5 -9 9 -20 9 -11 0 -23 7 -26 15 -4 8 -12 15 -20
15 -25 0 -31 34 -29 160 1 109 5 132 25 175 13 28 23 53 22 58 -1 4 3 7 10 7
6 0 9 3 5 6 -3 4 1 21 10 38 10 17 16 35 15 40 -2 4 3 18 11 30 14 23 42 106
39 119 -1 4 2 7 7 7 6 0 8 9 6 20 -2 11 1 20 6 20 6 0 8 4 4 9 -3 5 -1 12 4
16 6 3 8 12 4 20 -3 8 0 15 7 15 6 0 9 3 6 8 -2 4 2 32 10 62 16 57 16 60 29
125 5 22 9 45 11 50 5 20 16 80 18 101 2 11 6 26 10 32 4 7 1 12 -6 12 -9 0
-9 3 2 10 8 5 11 10 6 10 -5 0 -4 6 0 13 5 6 9 38 9 69 0 32 3 58 6 58 6 0 9
33 12 142 1 32 4 58 7 58 3 0 5 49 4 109 0 75 3 108 10 103 8 -4 8 -1 0 9 -9
12 -17 102 -17 206 0 18 -4 30 -9 27 -4 -3 -4 6 2 20 5 15 6 26 0 26 -5 0 -8
19 -8 41 0 23 -5 45 -12 49 -9 6 -9 9 1 13 11 3 11 7 2 17 -6 7 -9 19 -6 26 3
8 1 14 -3 14 -5 0 -10 21 -11 47 -1 27 -6 49 -11 51 -4 1 -7 16 -6 32 1 17 -1
30 -5 30 -8 0 -10 9 -13 55 -1 14 -6 25 -10 25 -4 0 -8 10 -8 23 0 13 -4 27
-9 33 -6 5 -11 21 -13 36 -2 15 -7 30 -11 34 -4 4 -7 15 -7 25 0 9 -5 19 -10
21 -6 2 -12 13 -13 26 0 12 -5 22 -9 22 -4 0 -7 3 -7 8 3 13 -25 72 -34 72 -4
0 -6 4 -2 9 3 5 -2 17 -11 25 -8 9 -12 16 -8 16 4 0 -1 9 -11 20 -10 11 -14
20 -9 20 5 0 1 5 -8 11 -10 5 -18 15 -18 20 0 6 -6 16 -12 24 -7 7 -24 27 -38
45 -22 29 -34 41 -74 75 -29 25 -59 35 -100 35 -25 0 -47 -4 -50 -8 -2 -4 -21
-7 -40 -7 -20 1 -36 -2 -36 -7 0 -5 -4 -7 -9 -3 -5 3 -12 1 -16 -5 -4 -6 -10
-8 -15 -5 -5 3 -11 1 -15 -5 -4 -6 -11 -8 -16 -5 -5 4 -9 1 -9 -4 0 -6 -9 -11
-19 -11 -11 0 -23 -4 -26 -10 -3 -5 -15 -10 -26 -10 -10 0 -19 -4 -19 -10 0
-5 -7 -10 -15 -10 -8 0 -15 -4 -15 -10 0 -5 -3 -10 -7 -9 -18 3 -52 -14 -57
-28 -3 -8 -10 -11 -16 -8 -5 3 -10 1 -10 -4 0 -6 -7 -11 -15 -11 -8 0 -15 -4
-15 -9 0 -17 -40 -23 -55 -8 -8 8 -11 17 -8 21 4 3 1 6 -5 6 -6 0 -14 10 -18
23 -4 12 -20 38 -35 57 -16 19 -29 40 -29 47 0 7 -5 13 -10 13 -6 0 -15 11
-20 25 -5 14 -14 25 -20 25 -5 0 -10 7 -10 15 0 8 -9 24 -20 35 -11 11 -17 20
-12 20 4 0 -2 7 -12 15 -11 8 -17 15 -13 15 5 0 -4 12 -18 27 -14 15 -25 32
-25 38 0 6 -9 16 -20 23 -11 7 -20 17 -20 23 0 6 -6 17 -12 24 -19 21 -30 35
-63 80 -30 41 -55 71 -135 165 -25 29 -56 66 -70 83 -14 16 -44 50 -67 73 -23
24 -40 44 -38 44 2 0 -33 37 -78 82 -45 46 -81 86 -79 90 1 5 -3 8 -8 8 -6 0
-39 29 -74 64 -35 36 -66 62 -70 59 -3 -4 -6 -1 -6 5 0 6 -11 22 -25 36 -14
14 -25 23 -25 21 0 -2 -19 14 -42 35 -24 22 -50 40 -58 40 -13 0 -13 1 0 10
13 8 12 10 -2 10 -10 0 -18 5 -18 10 0 6 -7 10 -15 10 -8 0 -15 8 -15 17 0 9
-3 14 -6 11 -3 -4 -13 1 -23 10 -9 9 -32 28 -51 42 -18 14 -45 35 -59 47 -46
40 -50 43 -60 43 -5 0 -12 7 -15 16 -4 9 -9 14 -13 11 -3 -4 -17 6 -29 21 -13
15 -24 24 -24 20 0 -7 -25 11 -56 40 -8 7 -14 10 -14 5 0 -4 -5 0 -11 10 -5 9
-17 17 -24 17 -8 0 -15 5 -15 12 0 6 -3 9 -6 5 -3 -3 -15 3 -27 14 -11 10 -26
19 -33 19 -6 0 -14 7 -18 15 -3 8 -12 15 -21 15 -8 0 -15 3 -15 8 0 4 -18 16
-40 26 -22 11 -40 23 -40 28 0 4 -7 8 -15 8 -8 0 -15 5 -15 11 0 5 -4 7 -10 4
-5 -3 -10 -3 -10 2 0 9 -56 36 -64 31 -3 -2 -13 7 -22 20 -9 13 -22 21 -29 18
-7 -2 -16 2 -19 10 -3 9 -10 12 -16 9 -6 -3 -13 1 -16 9 -3 9 -12 16 -20 16
-16 0 -56 20 -65 33 -3 5 -10 9 -15 9 -16 1 -59 22 -66 33 -4 5 -8 7 -8 3 0
-3 -20 4 -46 18 -25 13 -52 24 -60 24 -7 0 -14 5 -14 11 0 5 -4 8 -9 4 -5 -3
-12 -1 -16 5 -4 6 -11 8 -16 5 -5 -4 -9 -1 -9 4 0 6 -8 11 -18 11 -10 0 -23 5
-29 11 -6 6 -17 12 -24 13 -23 5 -52 17 -84 34 -16 9 -31 15 -32 14 -2 -1 -10
1 -18 5 -9 3 -19 3 -22 -1 -4 -3 -13 0 -22 7 -9 7 -36 20 -61 27 -25 7 -49 17
-55 21 -5 4 -13 7 -18 8 -30 1 -76 15 -72 21 2 4 -7 5 -20 2 -14 -2 -25 0 -25
6 0 6 -8 9 -17 7 -10 -1 -23 2 -29 7 -7 5 -16 8 -20 7 -9 -2 -58 8 -84 18 -16
7 -52 13 -87 15 -13 1 -23 6 -23 11 0 4 -4 5 -10 2 -5 -3 -10 -1 -10 6 0 8 -3
9 -13 0 -8 -6 -17 -8 -21 -4 -4 4 -17 8 -29 10 -75 8 -118 17 -123 24 -2 5
-16 4 -29 -1 -14 -5 -25 -6 -25 -2 0 5 -19 9 -42 11 -76 4 -105 8 -117 15 -6
4 -11 2 -11 -5 0 -8 -4 -9 -13 0 -10 8 -17 7 -25 -1 -8 -8 -12 -8 -12 -1 0 6
-18 9 -42 9 -24 -1 -49 2 -55 7 -9 6 -13 5 -13 -4 0 -11 -2 -11 -10 1 -5 8
-10 10 -10 3 0 -6 -8 -9 -17 -7 -29 7 -133 10 -133 4 0 -9 -75 -5 -82 5 -5 7
-8 6 -8 -1z"/>
</g>
</svg>
